P2
5 3 
9
6 6 6 
6 6 6 
6 6 6 
9 9 9 
9 9 9 